# xmcd
#
# Track frame offsets: 
#        150
#        19038
#        42838
#        60638
#        77418
#        96950
#        121350
#        141075
#        161700
#        178050
#        196538
#        209250
#        225500
#        237875
#        256725
#        275013
#        292800
#
# Disc length: 4101 seconds
#
# Revision: 0
# Processed by: cddbd v1.5.2PL0 Copyright (c) Steve Scherf et al.
# Submitted via: ExactAudioCopyFreeDBPlugin 1.0
#
DISCID=df100311
DTITLE=Viktor Lazlo - Sweet Soft 'n Lazy - The Very Best Of
DYEAR=1993
DGENRE=
TTITLE0=The Dream Is In Our Hands
TTITLE1=Sweet, Soft 'n Lazy
TTITLE2=Love Insane
TTITLE3=Breathless
TTITLE4=City Never Sleeps
TTITLE5=Amour Puissance Six
TTITLE6=The Wizard's Call
TTITLE7=In The Midnight Sky
TTITLE8=Pearl's A Singer
TTITLE9=Teach Me To Dance
TTITLE10=Put The Blame On Mame
TTITLE11=Hey Baby, Cool!
TTITLE12=Champagne And Wine
TTITLE13=Long Distance
TTITLE14=Men Of A Kind
TTITLE15=Ansiedad
TTITLE16=Desir Fou
EXTD=
EXTT0=
EXTT1=
EXTT2=
EXTT3=
EXTT4=
EXTT5=
EXTT6=
EXTT7=
EXTT8=
EXTT9=
EXTT10=
EXTT11=
EXTT12=
EXTT13=
EXTT14=
EXTT15=
EXTT16=
PLAYORDER=
